<?xml version="1.0" standalone="no"?>
<!DOCTYPE svg PUBLIC "-//W3C//DTD SVG 20010904//EN"
 "http://www.w3.org/TR/2001/REC-SVG-20010904/DTD/svg10.dtd">
<svg version="1.0" xmlns="http://www.w3.org/2000/svg"
 width="512.000000pt" height="512.000000pt" viewBox="0 0 512.000000 512.000000"
 preserveAspectRatio="xMidYMid meet">
<metadata>
Created by potrace 1.16, written by Peter Selinger 2001-2019
</metadata>
<g transform="translate(0.000000,512.000000) scale(0.100000,-0.100000)"
fill="#000000" stroke="none">
<path d="M1487 4132 c-10 -10 -17 -23 -17 -29 0 -9 196 -154 523 -387 75 -54
137 -103 137 -108 0 -6 -59 -97 -132 -202 -327 -473 -421 -619 -434 -673 -10
-40 -39 -95 -61 -115 -19 -17 -23 -16 -114 43 -134 87 -132 85 -112 122 9 17
41 69 71 114 49 75 54 86 44 108 -9 19 -19 25 -42 25 -28 0 -37 -9 -102 -110
-43 -67 -76 -109 -84 -106 -7 3 -90 55 -186 117 -149 97 -308 196 -613 384
l-70 43 -17 -26 c-10 -15 -18 -30 -18 -34 0 -3 51 -38 113 -76 490 -303 1144
-732 1153 -756 3 -8 -2 -40 -12 -72 -25 -87 -15 -155 39 -268 48 -100 73 -125
143 -146 38 -11 42 -16 48 -52 4 -26 19 -53 45 -81 32 -34 47 -42 87 -46 48
-6 49 -6 62 -54 19 -66 83 -133 137 -142 22 -4 45 -8 52 -10 7 -2 22 -37 34
-77 42 -142 86 -188 176 -188 44 0 58 5 100 38 l48 39 55 -25 c140 -64 261
-21 277 98 3 22 8 40 11 40 2 0 34 -28 70 -61 99 -93 155 -109 240 -68 52 25
102 96 102 143 0 17 -7 53 -15 80 -23 76 -21 77 54 39 139 -72 257 -49 312 60
17 32 20 52 16 101 -3 34 -8 70 -12 82 -6 20 -4 21 48 16 92 -7 161 42 186
134 22 82 -5 145 -111 259 -130 139 -388 430 -388 436 0 3 35 9 78 12 100 8
145 23 194 67 35 31 41 42 46 88 5 59 18 42 -162 209 -73 67 -103 88 -168 114
-96 39 -169 86 -268 174 -119 105 -110 103 -423 125 -149 11 -306 21 -347 22
l-75 3 0 49 0 50 -160 115 c-88 63 -243 175 -345 248 -102 73 -188 133 -191
133 -3 0 -13 -8 -22 -18z m1117 -673 c186 -13 287 -24 305 -34 14 -7 53 -38
86 -67 110 -96 143 -118 267 -178 111 -54 132 -68 222 -154 87 -85 98 -98 92
-121 -5 -19 -20 -32 -53 -47 -90 -40 -252 -13 -333 56 l-29 24 30 28 c34 32
29 38 -42 48 -59 9 -128 52 -165 105 -30 42 -41 46 -58 19 -17 -28 21 -91 120
-200 52 -57 158 -175 236 -263 78 -88 211 -235 294 -326 84 -91 159 -180 168
-197 26 -50 21 -99 -14 -134 -29 -28 -35 -30 -89 -26 -37 3 -66 11 -82 24 -45
36 -526 553 -548 588 -10 17 -29 25 -75 33 -33 6 -63 9 -65 7 -16 -14 120
-174 458 -537 91 -98 175 -194 185 -214 11 -19 21 -57 24 -83 4 -42 1 -51 -28
-83 -29 -34 -37 -37 -83 -37 -76 0 -121 28 -223 137 -180 194 -597 628 -616
642 -11 7 -56 21 -101 31 -45 10 -108 30 -141 44 -89 40 -108 33 -62 -21 14
-16 44 -35 68 -43 24 -7 71 -26 106 -41 49 -22 62 -32 62 -50 0 -14 34 -57 98
-123 54 -56 165 -173 247 -261 82 -88 176 -188 209 -222 64 -67 63 -62 82
-229 6 -48 4 -52 -26 -77 -45 -38 -91 -36 -134 6 -38 36 -656 684 -732 766
-27 29 -86 80 -130 111 -45 32 -110 81 -145 110 -35 28 -128 94 -206 146 -79
52 -143 97 -143 100 0 26 117 206 367 566 l144 207 87 -5 c48 -3 212 -14 366
-25z m-1023 -922 c-16 -16 -26 0 -10 19 9 11 15 12 17 4 2 -6 -1 -17 -7 -23z
m245 -72 c60 -36 126 -83 147 -104 l38 -37 -136 -123 c-74 -67 -135 -126 -135
-131 0 -22 -44 -8 -76 24 -28 28 -34 41 -34 78 0 46 20 82 94 172 21 25 36 49
33 53 -6 6 -133 -93 -157 -122 -22 -26 -30 -16 -30 34 0 64 51 166 99 198 19
13 37 23 41 23 3 0 56 -29 116 -65z m317 -225 c34 -30 69 -88 61 -101 -9 -14
-305 -259 -314 -259 -5 0 -22 12 -39 26 -38 32 -49 80 -27 123 31 59 231 241
266 241 11 0 35 -13 53 -30z m188 -190 c41 -33 73 -92 65 -118 -6 -16 -102
-109 -219 -210 -62 -54 -93 -55 -136 -7 -73 83 -23 172 182 328 27 20 54 37
60 37 7 0 29 -13 48 -30z m317 -360 c-2 -3 -64 -66 -139 -138 -154 -149 -168
-155 -224 -99 -31 31 -45 65 -61 144 -5 27 0 37 36 77 23 25 49 46 56 46 7 0
24 -19 38 -43 23 -39 86 -109 86 -95 0 3 -9 25 -20 49 -11 24 -20 63 -20 87 0
37 6 49 48 94 l47 50 78 -82 c43 -46 76 -86 75 -90z m67 -132 c29 -35 35 -49
31 -72 -8 -40 -22 -54 -62 -62 -37 -7 -100 19 -118 48 -9 15 -1 27 44 73 30
30 57 55 61 55 4 0 24 -19 44 -42z"/>
<path d="M2490 3300 c0 -15 39 -36 108 -59 86 -29 167 -36 216 -19 l39 14 -29
21 c-35 25 -127 57 -146 51 -8 -3 -1 -11 17 -21 17 -9 25 -16 19 -17 -11 0
-154 25 -201 35 -13 3 -23 1 -23 -5z"/>
<path d="M3330 3030 c0 -15 123 -111 139 -108 20 4 26 28 8 28 -8 0 -42 20
-76 45 -64 47 -71 51 -71 35z"/>
<path d="M2660 2962 c0 -4 30 -37 68 -73 54 -53 71 -65 90 -60 20 5 13 13 -62
74 -82 66 -96 75 -96 59z"/>
<path d="M2233 2786 c88 -85 203 -173 250 -189 26 -10 21 -1 -29 53 -50 54
-51 51 21 62 12 2 -13 15 -60 32 -79 28 -148 61 -235 111 -39 23 -31 13 53
-69z"/>
<path d="M2871 2774 c-52 -24 -101 -44 -111 -44 -9 0 -31 11 -50 25 -36 27
-60 32 -60 14 0 -15 99 -129 113 -129 25 0 218 163 206 174 -2 2 -46 -16 -98
-40z"/>
<path d="M3254 2531 c-60 -38 -81 -58 -71 -67 5 -5 102 59 132 87 32 31 4 22
-61 -20z"/>
<path d="M2927 2335 c-71 -48 -93 -81 -29 -45 45 25 121 89 107 90 -6 0 -41
-20 -78 -45z"/>
<path d="M3549 2168 c-36 -40 -47 -58 -34 -58 3 0 26 19 51 42 l46 43 45 -49
c40 -45 43 -50 29 -70 -8 -12 -24 -21 -39 -21 -21 1 -24 -2 -15 -13 16 -19 48
-11 71 19 16 22 17 30 7 50 -20 39 -83 99 -103 99 -11 0 -37 -19 -58 -42z"/>
<path d="M2530 2154 c-64 -47 -77 -72 -18 -36 32 20 97 82 86 82 -3 0 -34 -21
-68 -46z"/>
<path d="M2849 1942 c-47 -31 -109 -89 -109 -100 0 -23 18 -11 86 53 67 62 77
84 23 47z"/>
<path d="M3100 1568 c-14 -30 -47 -36 -94 -18 -17 6 -27 6 -32 -2 -12 -19 27
-38 78 -38 43 0 50 3 59 27 15 39 6 65 -11 31z"/>
<path d="M2030 2191 c-25 -21 -42 -42 -37 -47 4 -4 20 4 35 17 57 52 61 53 82
34 24 -21 27 -4 4 19 -23 23 -34 20 -84 -23z"/>
<path d="M2232 2008 c-42 -34 -59 -58 -42 -58 6 0 28 16 50 36 38 35 41 36 59
20 12 -11 21 -13 25 -7 6 9 -29 41 -45 41 -4 0 -25 -15 -47 -32z"/>
<path d="M2139 1892 c13 -25 40 -46 48 -38 7 7 -36 56 -49 56 -5 0 -4 -8 1
-18z"/>
</g>
</svg>